<svg width="123" height="145" viewBox="0 0 123 145" fill="none" xmlns="http://www.w3.org/2000/svg">
<g id="Property 1=bug">
<path id="Vector" fill-rule="evenodd" clip-rule="evenodd" d="M85.5557 0.940911C85.6606 0.791366 85.8665 0.755023 86.0161 0.859736L96.2407 8.01911C96.3903 8.12382 96.4266 8.32992 96.3219 8.47946L82.091 28.8032C89.0094 31.0135 93.7229 33.3976 93.7229 33.3976C93.7229 33.3976 82.2018 53.2151 62.6608 53.2151C43.1198 53.2151 29.2342 34.7448 29.2342 34.7448C29.2342 34.7448 34.1578 31.6027 41.4562 28.9078L25.8469 10.3055C25.7296 10.1656 25.7479 9.95715 25.8877 9.83981L35.4493 1.81655C35.5894 1.6992 35.7978 1.71744 35.9151 1.85729L55.6791 25.4111C57.3713 25.2197 59.0954 25.1127 60.8352 25.1127C63.3358 25.1127 65.8333 25.3028 68.2715 25.6254L85.5557 0.940911ZM89.4218 54.1536C94.6364 50.4293 102.527 40.7087 102.527 40.7087C102.527 40.7087 122.683 56.6809 122.683 90.5479C122.683 124.415 87.8369 144.798 87.8369 144.798C87.8369 144.798 71.1883 127.984 67.1012 106.671C63.0143 85.3575 73.1469 61.6914 73.1469 61.6914C73.1469 61.6914 84.2068 57.8779 89.4218 54.1536ZM33.2609 54.1536C28.0462 50.4293 20.1555 40.7087 20.1555 40.7087C20.1555 40.7087 0 56.6809 0 90.5479C0 124.415 34.8457 144.798 34.8457 144.798C34.8457 144.798 51.4943 127.984 55.5815 106.671C59.6683 85.3575 49.5357 61.6914 49.5357 61.6914C49.5357 61.6914 38.4758 57.8779 33.2609 54.1536Z" fill="#91C12F"/>
</g>
</svg>
