<svg width="144" height="144" viewBox="0 0 144 144" fill="none" xmlns="http://www.w3.org/2000/svg">
<g id="Property 1=fairy">
<path id="Vector" fill-rule="evenodd" clip-rule="evenodd" d="M28.8917 114.181L51.9885 107.484L71.9376 143.96C71.9637 144.007 72.0315 144.007 72.0574 143.96L92.0064 107.484L115.104 114.181C115.155 114.196 115.203 114.148 115.188 114.096L108.49 91.4566L143.96 72.0574C144.007 72.0315 144.007 71.9637 143.96 71.9378L108.197 52.3786L115.188 28.7508C115.203 28.699 115.155 28.6509 115.104 28.6658L91.4648 35.5202L72.0574 0.0354904C72.0315 -0.0118293 71.9637 -0.0118306 71.9378 0.0354893L52.5305 35.5202L28.8917 28.6658C28.8399 28.6509 28.7918 28.699 28.8073 28.7508L35.7978 52.3786L0.0354904 71.9378C-0.0118293 71.9637 -0.0118306 72.0315 0.0354893 72.0574L35.5053 91.4566L28.8073 114.096C28.7918 114.148 28.8399 114.196 28.8917 114.181ZM46.8146 72.2464L63.1775 81.1955L72.1266 97.558C72.1524 97.6056 72.2205 97.6056 72.2464 97.558L81.1955 81.1955L97.558 72.2464C97.6053 72.2205 97.6053 72.1524 97.558 72.1266L81.1955 63.1775L72.2464 46.8149C72.2205 46.7674 72.1524 46.7674 72.1266 46.8149L63.1775 63.1775L46.8146 72.1266C46.7674 72.1524 46.7674 72.2205 46.8146 72.2464Z" fill="#EC8FE6"/>
</g>
</svg>
