<svg width="135" height="145" viewBox="0 0 135 145" fill="none" xmlns="http://www.w3.org/2000/svg">
<g id="Property 1=fighting">
<path id="Vector" fill-rule="evenodd" clip-rule="evenodd" d="M20.0344 12.5712C21.7772 5.69063 28.0105 0.599609 35.4327 0.599609C41.0001 0.599609 45.8986 3.46406 48.7347 7.79961H53.379C56.2643 4.8385 60.2955 2.99961 64.7564 2.99961C71.2966 2.99961 76.9137 6.95254 79.3488 12.5996H83.2371C85.6735 11.0786 88.5524 10.1996 91.6363 10.1996C98.1768 10.1996 103.794 14.1525 106.229 19.7996H116.802C116.893 19.7996 116.977 19.8239 117.05 19.8664C117.533 19.8222 118.022 19.7996 118.516 19.7996C127.289 19.7996 134.4 26.9109 134.4 35.6833V83.3113L134.4 83.3996L134.4 83.4879V84.1739C134.4 84.4644 134.392 84.7538 134.376 85.0418C133.421 118.083 103.711 144.6 67.1999 144.6C30.0864 144.6 0 117.199 0 83.3996C0 67.0846 7.01013 52.2605 18.4369 41.2895C18.4084 57.195 18.6771 73.6385 19.9155 73.3565C23.2316 72.6005 20.6407 23.3357 20.0344 12.5712Z" fill="#CE416B"/>
</g>
</svg>
