<svg width="108" height="145" viewBox="0 0 108 145" fill="none" xmlns="http://www.w3.org/2000/svg">
<g id="Property 1=fire">
<path id="Vector" fill-rule="evenodd" clip-rule="evenodd" d="M81.0726 112.004C82.8518 105.499 79.3983 92.1246 79.3983 92.1246C79.3983 92.1246 76.8935 103.02 72.9796 107.047C69.6406 110.482 65.5499 112.864 59.683 113.49C64.4797 111.16 67.7785 106.302 67.7785 100.687C67.7785 92.805 61.2782 86.415 53.2598 86.415C45.2413 86.415 38.7408 92.805 38.7408 100.687C38.7408 102.84 39.226 104.882 40.0942 106.712C35.0789 102.716 34.2903 96.3107 34.2903 96.3107C34.2903 96.3107 28.6901 119.562 44.1211 130.499C59.5519 141.436 89.7804 132.035 89.7804 132.035C89.7804 132.035 46.5216 162.473 14.4664 129.345C-13.1465 100.808 7.25941 63.2383 7.25941 63.2383C7.25941 63.2383 6.37814 66.7235 6.37814 70.7693C6.37814 74.8151 8.57169 77.8934 8.57169 77.8934C8.57169 77.8934 15.115 64.1011 20.2073 58.4922C25.0268 53.1839 31.0683 48.8785 36.2866 45.1598C40.3034 42.2972 43.8326 39.7823 45.9403 37.4251C57.5494 24.4443 50.4313 0.799927 50.4313 0.799927C50.4313 0.799927 63.5178 12.3368 67.1713 27.2368C68.564 32.9164 67.6679 39.3787 66.8669 45.1576C65.5664 54.5389 64.5154 62.1195 73.9106 61.6276C89.093 60.8325 75.8999 37.4251 75.8999 37.4251C75.8999 37.4251 110.339 55.5264 107.767 87.1845C105.193 118.843 70.1224 126.04 70.1224 126.04C70.1224 126.04 79.2931 118.51 81.0726 112.004Z" fill="#FF9D55"/>
</g>
</svg>
