<svg width="144" height="145" viewBox="0 0 144 145" fill="none" xmlns="http://www.w3.org/2000/svg">
<g id="Property 1=flying">
<path id="Vector" fill-rule="evenodd" clip-rule="evenodd" d="M50.2628 134.999C71.3573 134.999 89.417 123.275 96.8726 106.656C96.9638 106.453 66.9395 114.459 67.8968 111.629C68.3243 110.365 86.7293 103.641 100.139 95.799C107.846 91.2914 111.395 81.7495 111.395 81.7495C111.395 81.7495 98.4102 88.0537 91.8461 89.6529C78.6184 92.876 66.9743 92.5289 66.9743 92.1931C66.9743 91.4669 86.3089 87.7932 113.182 71.4175C125.822 63.7149 129.255 50.4472 129.255 50.4472C129.255 50.4472 115.358 58.7249 106.957 61.4578C87.0348 67.9387 68.8542 69.8917 68.8542 69.0147C68.8542 67.1371 84.8537 62.7375 101.817 54.518C110.637 50.2444 118.275 44.661 127.127 38.4519C141.611 28.2928 144 10.1995 144 10.1995C144 10.1995 129.714 19.4132 122.743 22.473C93.9772 35.0988 68.5769 41.7217 50.2628 43.1555C22.617 45.32 0 64.609 0 89.6529C0 114.697 22.5033 134.999 50.2628 134.999Z" fill="#89AAE3"/>
</g>
</svg>
