<svg width="144" height="145" viewBox="0 0 144 145" fill="none" xmlns="http://www.w3.org/2000/svg">
<g id="Property 1=ghost">
<path id="Vector" fill-rule="evenodd" clip-rule="evenodd" d="M103.768 144.301C90.7788 144.966 75.9082 144.966 70.8548 144.301C31.4353 139.115 0 110.294 0 71.3374C0 32.3806 32.2355 0.799927 72 0.799927C111.765 0.799927 144 32.3806 144 71.3374C144 89.4558 137.027 105.979 125.567 118.471C122.455 121.863 126.725 124.243 131.063 126.66C135.318 129.032 139.638 131.439 137.127 134.875C134.36 138.661 119.36 143.503 103.768 144.301ZM61.875 62.5202C61.875 68.607 56.8381 73.5416 50.625 73.5416C44.4119 73.5416 39.375 68.607 39.375 62.5202C39.375 58.4379 41.6405 54.8742 45.0068 52.9693C45.2005 58.2767 49.5644 62.52 54.9194 62.52H61.875V62.5202ZM96.7433 52.9693C96.5495 58.2767 92.1856 62.52 86.8306 62.52H79.875V62.5202C79.875 68.607 84.9119 73.5416 91.125 73.5416C97.3381 73.5416 102.375 68.607 102.375 62.5202C102.375 58.4379 100.11 54.8742 96.7433 52.9693Z" fill="#5269AD"/>
</g>
</svg>
