<svg width="129" height="144" viewBox="0 0 129 144" fill="none" xmlns="http://www.w3.org/2000/svg">
<g id="Property 1=grass">
<path id="Vector" fill-rule="evenodd" clip-rule="evenodd" d="M20.595 123.595C20.1007 123.13 19.6119 122.656 19.1288 122.173C-6.37626 96.6678 -6.37625 55.3159 19.1288 29.811C44.6337 4.30587 125.903 2.59961 125.903 2.59961C125.903 2.59961 136.996 96.6678 111.491 122.173C88.8389 144.825 53.6877 147.359 28.2393 129.775L48.7447 104.611L81.5244 97.5343L54.7665 94.8593L71.7715 77.545L91.1282 73.3046L75.8221 68.7717L91.1282 41.1597L69.3567 65.5801L60.9493 53.7161L63.9089 73.3046L48.7447 90.3996L41.7154 68.7714V97.5343L20.595 123.595Z" fill="#63BC5A"/>
</g>
</svg>
