<svg width="144" height="145" viewBox="0 0 144 145" fill="none" xmlns="http://www.w3.org/2000/svg">
<g id="Property 1=ground">
<path id="Vector" fill-rule="evenodd" clip-rule="evenodd" d="M31.7149 124.393C31.6758 124.393 31.6485 124.354 31.6614 124.318L68.425 20.4373C68.4332 20.4148 68.4546 20.3997 68.4785 20.3997H107.725C107.749 20.3997 107.77 20.4149 107.778 20.4376L143.996 124.318C144.009 124.355 143.982 124.393 143.943 124.393H32.8196H31.7149ZM0.0566173 124.799C0.0171316 124.799 -0.0102052 124.76 0.00364521 124.723L27.3804 51.6342C27.3887 51.6119 27.4098 51.5973 27.4334 51.5973H51.2207C51.2601 51.5973 51.2873 51.6364 51.2738 51.6733L24.8013 124.762C24.7932 124.784 24.7719 124.799 24.7481 124.799H0.0566173Z" fill="#D97845"/>
</g>
</svg>
