<svg width="141" height="125" viewBox="0 0 141 125" fill="none" xmlns="http://www.w3.org/2000/svg">
<g id="Property 1=ice">
<g id="Frame 1000002539">
<g id="Group 1">
<path id="Vector" fill-rule="evenodd" clip-rule="evenodd" d="M106.381 1.35852L106.824 40.2695L72.8858 56.5615L72.4673 19.8221L106.381 1.35852Z" fill="#73CEC0"/>
<path id="Vector_2" fill-rule="evenodd" clip-rule="evenodd" d="M140.403 62.6725L106.806 81.8895L73.1895 62.6422L106.789 44.9932L140.403 62.6725Z" fill="#73CEC0"/>
<path id="Vector_3" fill-rule="evenodd" clip-rule="evenodd" d="M67.2135 62.6725L33.6168 81.8895L0 62.6422L33.5994 44.9932L67.2135 62.6725Z" fill="#73CEC0"/>
<path id="Vector_4" fill-rule="evenodd" clip-rule="evenodd" d="M33.2393 1.19922L68.1103 18.4696L67.2188 56.1053L34.2939 39.799L33.2393 1.19922Z" fill="#73CEC0"/>
<path id="Vector_5" fill-rule="evenodd" clip-rule="evenodd" d="M107.33 123.557L72.4592 106.287L73.3508 68.6505L106.276 84.9571L107.33 123.557Z" fill="#73CEC0"/>
<path id="Vector_6" fill-rule="evenodd" clip-rule="evenodd" d="M34.4435 123.907L34.0002 84.9962L67.939 68.7042L68.3575 105.443L34.4435 123.907Z" fill="#73CEC0"/>
</g>
</g>
</g>
</svg>
