<svg width="144" height="145" viewBox="0 0 144 145" fill="none" xmlns="http://www.w3.org/2000/svg">
<g id="Property 1=poison">
<path id="Vector" fill-rule="evenodd" clip-rule="evenodd" d="M120.325 110.857C134.866 99.2298 144 82.4302 144 63.7479C144 28.651 111.765 0.199463 72 0.199463C32.2355 0.199463 0 28.651 0 63.7479C0 81.7558 8.48635 98.0143 22.1218 109.578C21.2954 112.431 20.8421 115.535 20.8421 118.78C20.8421 132.819 29.3251 144.199 39.7896 144.199C46.5891 144.199 52.5521 139.394 55.8948 132.177C59.2374 139.394 65.2005 144.199 72 144.199C78.1982 144.199 83.7011 140.207 87.158 134.034C90.6148 140.207 96.1178 144.199 102.316 144.199C112.78 144.199 121.263 132.819 121.263 118.78C121.263 116.014 120.934 113.35 120.325 110.857ZM113.684 65.0082C113.684 82.8265 94.5973 97.2712 71.0527 97.2712C47.5079 97.2712 28.4212 82.8265 28.4212 65.0082C28.4212 47.1899 47.5079 32.7452 71.0527 32.7452C94.5973 32.7452 113.684 47.1899 113.684 65.0082Z" fill="#B567CE"/>
</g>
</svg>
