<svg width="134" height="145" viewBox="0 0 134 145" fill="none" xmlns="http://www.w3.org/2000/svg">
<g id="Property 1=psychic">
<path id="Vector" fill-rule="evenodd" clip-rule="evenodd" d="M123.166 120.383C123.166 120.383 105.009 134.946 68.8761 128.919C41.4627 124.347 26.8416 94.128 26.8416 77.8846C26.8416 39.3731 55.3452 30.6091 74.6156 30.6091C93.8857 30.6091 106.457 49.3965 106.457 63.9428C106.457 78.489 96.1686 91.2122 80.1579 91.2122C64.1475 91.2122 59.4056 79.9721 59.4056 69.6381C59.4056 59.3044 67.7663 55.6636 75.3913 55.6636C83.0163 55.6636 85.6271 62.1735 85.6271 67.7684C85.6271 73.3635 81.286 75.3672 77.6652 75.3672C74.0444 75.3672 73.6864 73.5405 72.3006 71.6206C70.9146 69.7011 74.068 62.4347 68.8761 62.4347C63.6843 62.4347 62.7165 70.7881 62.7165 70.7881C62.7165 70.7881 64.6093 86.913 80.1579 86.6349C95.7068 86.3565 103.083 74.3358 100.939 62.4347C98.7958 50.5334 87.2457 37.887 66.9749 40.4424C46.7041 42.9978 38.4277 63.4796 42.0758 85.3676C45.7239 107.256 71.9457 119.938 92.5627 115.375C113.18 110.813 133.714 95.8866 133.714 58.0436C133.714 20.2002 100.939 -2.547 61.8584 1.20187C22.7773 4.95073 -1.48247 39.118 0.0703639 80.1706C1.6232 121.223 40.5773 143.582 73.5171 144.734C106.457 145.887 126.65 126.819 126.65 126.819C126.65 126.819 131.192 122.769 129.411 119.607C127.631 116.444 123.166 120.383 123.166 120.383Z" fill="#FA7179"/>
</g>
</svg>
