<svg width="145" height="144" viewBox="0 0 145 144" fill="none" xmlns="http://www.w3.org/2000/svg">
<g id="Property 1=rock">
<path id="Vector" fill-rule="evenodd" clip-rule="evenodd" d="M111.414 69.0501C111.406 69.0388 111.402 69.0247 111.405 69.011L120.591 15.4424C120.596 15.4177 120.617 15.3997 120.642 15.3997H123.549C123.572 15.3997 123.592 15.4142 123.598 15.4356L144.296 80.9678C144.302 80.988 144.295 81.0105 144.278 81.0237L129.018 92.9383C128.995 92.956 128.962 92.9515 128.945 92.9282L111.414 69.0501ZM0 104.562C0 104.584 0.0142864 104.604 0.0354068 104.611L31.493 114.897C31.5082 114.902 31.525 114.899 31.5382 114.89L101.853 66.3464C101.865 66.3383 101.873 66.3256 101.875 66.3115L109.415 15.717C109.42 15.686 109.396 15.6581 109.365 15.6581H47.0829C47.0675 15.6581 47.0531 15.6649 47.0433 15.6767L0.0118198 72.413C0.00417937 72.4222 0 72.4338 0 72.4459V104.562ZM44.6015 117.517L78.9682 128.775C78.9837 128.78 79.0009 128.777 79.0141 128.768L119.93 99.4186C119.953 99.4026 119.958 99.3713 119.943 99.3483L104.605 76.5234C104.589 76.4995 104.557 76.4933 104.533 76.5097L44.6015 117.517Z" fill="#C5B78C"/>
</g>
</svg>
