<svg width="144" height="145" viewBox="0 0 144 145" fill="none" xmlns="http://www.w3.org/2000/svg">
<g id="Property 1=steel">
<path id="Vector" fill-rule="evenodd" clip-rule="evenodd" d="M0.0143749 72.4229C-0.00478254 72.3903 -0.00479216 72.3498 0.0143493 72.3168L36.2236 10.4515C36.2424 10.4194 36.277 10.3997 36.3142 10.3997H108.083C108.12 10.3997 108.155 10.4196 108.174 10.4519L143.986 72.3174C144.004 72.3498 144.004 72.39 143.986 72.4223L108.174 134.218C108.155 134.251 108.12 134.271 108.083 134.271H36.3142C36.277 134.271 36.2424 134.251 36.2236 134.219L0.0143749 72.4229ZM105.361 72.3351C105.361 90.7536 90.4297 105.685 72.0112 105.685C53.5927 105.685 38.6615 90.7536 38.6615 72.3351C38.6615 53.9163 53.5927 38.9853 72.0112 38.9853C90.4297 38.9853 105.361 53.9163 105.361 72.3351Z" fill="#5A8EA2"/>
</g>
</svg>
